<svg width="1768" height="322" viewBox="0 0 1768 322" fill="none" xmlns="http://www.w3.org/2000/svg">
<path d="M215.844 51.6557L147.602 90.8361C143.835 93.0013 143.835 96.4932 147.602 98.6396L188.765 122.081C192.481 124.197 192.481 127.663 188.765 129.835L175.012 137.857C171.277 140.035 165.208 140.092 161.46 137.976L92.0986 98.8023C88.2695 96.6371 88.2695 93.1139 92.0986 90.9299L161.46 51.4367C165.208 49.3028 165.208 45.8171 161.46 43.6457L147.602 35.6231C143.835 33.4454 137.716 33.4016 133.937 35.5355L35.4067 91.1865C32.4347 92.8636 32.441 97.1502 35.4192 98.8211L49.3341 106.618C53.1882 108.777 56.3103 114.147 56.3103 118.615V135.098C56.3103 139.566 53.1882 141.443 49.3341 139.284L6.97622 115.555C3.12209 113.396 0 108.026 0 103.558V87.4193C0 82.2128 2.81551 77.4067 7.35788 74.8598L133.937 3.96469C137.716 1.84954 143.835 1.91838 147.602 4.11488L215.844 43.9335C219.529 46.0862 219.529 49.5406 215.844 51.6557Z" fill="url(#paint0_linear_577_678)"/>
<path d="M268.764 74.7977C273.188 77.3747 275.904 82.1098 275.904 87.2263V234.131C275.904 238.597 272.906 243.964 269.208 246.122L201.503 285.603C197.805 287.761 194.808 285.884 194.808 281.418V199.641C194.808 195.175 191.811 193.298 188.113 195.456L147.44 219.175C143.742 221.333 140.744 219.457 140.744 214.991V198.515C140.744 194.049 143.742 188.682 147.44 186.524L215.144 147.043C218.843 144.885 221.84 146.761 221.84 151.227V233.005C221.84 237.471 224.837 239.347 228.535 237.189L242.176 229.233C245.874 227.075 248.872 221.708 248.872 217.242V102.351C248.872 98.9732 245.205 96.8653 242.283 98.5666L229.155 106.223C225.475 108.368 219.506 108.393 215.82 106.279L202.179 98.454C198.475 96.3273 198.475 92.8558 202.179 90.7166L242.683 67.2855C246.344 65.165 252.263 65.1775 255.911 67.3042L268.764 74.7977Z" fill="url(#paint1_linear_577_678)"/>
<path d="M167.854 248.118V297.283C167.854 301.753 164.857 307.124 161.158 309.284L147.927 317.002C143.521 319.575 138.089 319.619 133.639 317.127L6.97829 246.177C3.12302 244.017 0 238.646 0 234.177V152.334C0 147.865 3.12302 145.987 6.97829 148.147L77.5122 187.659C81.3675 189.819 84.4905 187.941 84.4905 183.471V134.306C84.4905 129.836 87.6135 127.958 91.4688 130.118L105.676 138.081C109.531 140.24 112.654 145.611 112.654 150.081V231.923C112.654 236.393 109.531 238.271 105.676 236.111L35.1418 196.598C31.2865 194.439 28.1635 196.317 28.1635 200.786V217.275C28.1635 221.745 31.2865 227.116 35.1418 229.275L134.296 284.813C137.219 286.447 140.818 284.338 140.818 280.989V263.88C140.818 259.411 143.815 254.04 147.514 251.88L161.158 243.917C164.857 241.758 167.854 243.636 167.854 248.105V248.118Z" fill="#3F63ED"/>
<path d="M456.938 99.0449C473.03 99.0449 485.855 103.016 494.695 110.088C503.576 117.192 508.279 127.308 508.279 139.197C508.279 151.084 503.594 161.2 494.721 168.306C485.888 175.378 473.062 179.35 456.938 179.35H455.187V179.283H431.742V222.12H417.249V99.0449H456.938ZM431.742 165.915H457.202C469.358 165.915 478.537 163.246 484.633 158.639C490.665 154.08 493.852 147.499 493.853 139.197C493.853 130.892 490.679 124.293 484.662 119.719C478.583 115.097 469.423 112.412 457.269 112.412H431.742V165.915Z" fill="#6D6D73" stroke="#6D6D73" stroke-width="3.50287"/>
<path d="M614.664 96.7334C624.148 96.7334 632.98 98.9192 641.127 103.369H641.126C649.238 107.602 655.075 113.119 658.577 119.563L659.371 121.025L657.952 121.894L649.08 127.322L647.542 128.264L646.645 126.698C641.254 117.28 628.792 110.3 614.333 110.3C606.026 110.3 598.599 112.571 593.298 116.325C588.013 120.068 584.9 125.222 584.9 131.125C584.9 136.182 586.79 140.143 590.806 143.444C594.918 146.823 601.305 149.542 610.323 151.805H610.322L626.728 155.774L626.738 155.776L626.748 155.779C637.994 158.633 646.64 162.775 652.494 168.35C658.4 173.974 661.371 180.974 661.371 189.257C661.371 199.763 656.15 208.618 647.682 214.789C639.241 220.941 627.571 224.443 614.466 224.443C603.865 224.443 594.183 222.062 585.448 217.49C576.743 212.934 570.3 207.09 566.325 199.977L565.491 198.482L566.965 197.613L576.168 192.185L576.579 191.941H578.132L578.638 192.813C584.692 203.235 597.823 210.877 614.862 210.877C623.347 210.877 631.468 208.599 637.414 204.789C643.365 200.976 646.944 195.781 646.944 189.919C646.944 184.578 645.005 180.453 640.936 177.062C636.772 173.592 630.309 170.841 621.194 168.578V168.577L604.784 164.608L604.776 164.605C593.627 161.852 585.06 157.794 579.261 152.292C573.592 146.913 570.659 140.236 570.481 132.355L570.472 131.589C570.405 110.958 589.917 96.7334 614.664 96.7334Z" fill="#6D6D73" stroke="#6D6D73" stroke-width="3.50287"/>
<path d="M904.8 99.0449V208.554H972.465V222.12H890.307V99.0449H904.8Z" fill="#6D6D73" stroke="#6D6D73" stroke-width="3.50287"/>
<path d="M1050.12 99.0449V222.12H1035.63V99.0449H1050.12Z" fill="#6D6D73" stroke="#6D6D73" stroke-width="3.50287"/>
<path d="M1118.01 160.562C1117.5 124.927 1144.42 96.0675 1179.81 96.7305C1214.83 96.0666 1242.16 124.946 1241.62 160.612C1242.07 196.061 1214.8 224.905 1179.81 224.44C1144.48 224.905 1117.47 196.098 1118.01 160.562ZM1179.82 110.429C1151.84 110.429 1132.51 132.225 1132.51 160.519C1132.51 188.815 1151.84 210.675 1179.82 210.675C1207.79 210.675 1227.12 188.88 1227.12 160.519C1227.12 132.161 1207.79 110.429 1179.82 110.429Z" fill="#6D6D73" stroke="#6D6D73" stroke-width="3.50287"/>
<path d="M1323.09 99.0449L1323.62 99.7529L1396 197.346V99.0449H1410.37V222.12H1397.21L1396.68 221.414L1324.16 123.896V222.12H1309.8V99.0449H1323.09Z" fill="#6D6D73" stroke="#6D6D73" stroke-width="3.50287"/>
<path d="M778.747 99.0449L779.195 100.125L828.786 219.698L829.791 222.12H814.342L813.896 221.036L800.256 187.932L800.255 187.929L796.35 178.397L771.819 118.902L747.351 178.396L747.35 178.396L743.445 187.929L743.444 187.932L729.805 221.036L729.358 222.12H714.242L715.246 219.698L764.836 100.125L765.285 99.0449H778.747Z" fill="#6D6D73" stroke="#6D6D73" stroke-width="3.50287"/>
<path d="M1509.31 96.9632L1547.82 199.856L1586.42 96.9632H1606.61L1557.24 224.116H1537.98L1488.62 96.9632H1509.31Z" fill="#3F63ED"/>
<path d="M1649.6 160.582C1649.49 151.477 1651.07 142.825 1654.35 134.625C1657.63 126.426 1662.13 119.385 1667.84 113.504C1673.55 107.566 1680.42 102.901 1688.45 99.5079C1696.54 96.0584 1705.08 94.4185 1714.07 94.5881C1725.43 94.5881 1735.81 97.1046 1745.2 102.138C1754.59 107.114 1762.11 113.956 1767.76 122.665L1751.81 131.911C1747.57 125.577 1742.2 120.658 1735.7 117.152C1729.25 113.645 1722.04 111.892 1714.07 111.892C1705.36 111.723 1697.47 113.843 1690.4 118.254C1683.33 122.609 1677.85 128.546 1673.94 136.067C1670.1 143.532 1668.23 151.704 1668.35 160.582C1668.23 169.46 1670.1 177.66 1673.94 185.181C1677.85 192.646 1683.33 198.555 1690.4 202.91C1697.47 207.264 1705.36 209.356 1714.07 209.187C1722.04 209.187 1729.28 207.462 1735.78 204.012C1742.29 200.506 1747.63 195.586 1751.81 189.253L1767.76 198.414C1762.11 207.179 1754.59 214.078 1745.2 219.111C1735.81 224.087 1725.43 226.576 1714.07 226.576C1705.08 226.745 1696.54 225.105 1688.45 221.656C1680.42 218.263 1673.55 213.626 1667.84 207.745C1662.13 201.807 1657.63 194.738 1654.35 186.538C1651.07 178.339 1649.49 169.686 1649.6 160.582Z" fill="#3F63ED"/>
<defs>
<linearGradient id="paint0_linear_577_678" x1="19.6364" y1="120.895" x2="113.455" y2="-24.4145" gradientUnits="userSpaceOnUse">
<stop offset="0.125488" stop-color="#0C33F3"/>
<stop offset="0.181918" stop-color="#66ACFF"/>
<stop offset="1" stop-color="#62AAFF"/>
</linearGradient>
<linearGradient id="paint1_linear_577_678" x1="219.467" y1="75.2361" x2="335.54" y2="278.363" gradientUnits="userSpaceOnUse">
<stop offset="0.0190807" stop-color="#64ABFF"/>
<stop offset="0.111049" stop-color="#63ABFF"/>
<stop offset="0.21" stop-color="#0C33F3"/>
<stop offset="0.624419" stop-color="#0C33F3"/>
<stop offset="1" stop-color="#0C33F3"/>
</linearGradient>
</defs>
</svg>
