<svg width="2624" height="322" viewBox="0 0 2624 322" fill="none" xmlns="http://www.w3.org/2000/svg">
<path d="M215.844 51.6557L147.602 90.8361C143.835 93.0013 143.835 96.4932 147.602 98.6396L188.765 122.081C192.481 124.197 192.481 127.663 188.765 129.835L175.012 137.857C171.277 140.035 165.208 140.092 161.46 137.976L92.0986 98.8023C88.2695 96.6371 88.2695 93.1139 92.0986 90.9299L161.46 51.4367C165.208 49.3028 165.208 45.8171 161.46 43.6457L147.602 35.6231C143.835 33.4454 137.716 33.4016 133.937 35.5355L35.4067 91.1865C32.4347 92.8636 32.441 97.1502 35.4192 98.8211L49.3341 106.618C53.1882 108.777 56.3103 114.147 56.3103 118.615V135.098C56.3103 139.566 53.1882 141.443 49.3341 139.284L6.97622 115.555C3.12209 113.396 0 108.026 0 103.558V87.4193C0 82.2128 2.81551 77.4067 7.35788 74.8598L133.937 3.96469C137.716 1.84954 143.835 1.91838 147.602 4.11488L215.844 43.9335C219.529 46.0862 219.529 49.5406 215.844 51.6557Z" fill="url(#paint0_linear_577_661)"/>
<path d="M268.764 74.7977C273.188 77.3747 275.904 82.1098 275.904 87.2263V234.131C275.904 238.597 272.906 243.964 269.208 246.122L201.503 285.603C197.805 287.761 194.808 285.884 194.808 281.418V199.641C194.808 195.175 191.811 193.298 188.113 195.456L147.44 219.175C143.742 221.333 140.744 219.457 140.744 214.991V198.515C140.744 194.049 143.742 188.682 147.44 186.524L215.145 147.043C218.843 144.885 221.84 146.761 221.84 151.227V233.005C221.84 237.471 224.837 239.347 228.535 237.189L242.176 229.233C245.874 227.075 248.872 221.708 248.872 217.242V102.351C248.872 98.9732 245.205 96.8653 242.283 98.5666L229.155 106.223C225.475 108.368 219.506 108.393 215.82 106.279L202.179 98.454C198.475 96.3273 198.475 92.8558 202.179 90.7166L242.683 67.2855C246.344 65.165 252.263 65.1775 255.911 67.3042L268.764 74.7977Z" fill="url(#paint1_linear_577_661)"/>
<path d="M167.854 248.118V297.283C167.854 301.753 164.857 307.124 161.158 309.284L147.927 317.002C143.521 319.575 138.089 319.619 133.639 317.127L6.97829 246.177C3.12302 244.017 0 238.646 0 234.177V152.334C0 147.865 3.12302 145.987 6.97829 148.147L77.5122 187.659C81.3675 189.819 84.4905 187.941 84.4905 183.471V134.306C84.4905 129.836 87.6135 127.958 91.4688 130.118L105.676 138.081C109.531 140.24 112.654 145.611 112.654 150.081V231.923C112.654 236.393 109.531 238.271 105.676 236.111L35.1418 196.598C31.2865 194.439 28.1635 196.317 28.1635 200.786V217.275C28.1635 221.745 31.2865 227.116 35.1418 229.275L134.296 284.813C137.219 286.447 140.818 284.338 140.818 280.989V263.88C140.818 259.411 143.815 254.04 147.514 251.88L161.158 243.917C164.857 241.758 167.854 243.636 167.854 248.105V248.118Z" fill="#3F63ED"/>
<path d="M456.938 99.0449C473.03 99.0449 485.855 103.016 494.695 110.088C503.576 117.192 508.279 127.308 508.279 139.197C508.279 151.084 503.594 161.2 494.721 168.306C485.888 175.378 473.062 179.35 456.938 179.35H455.187V179.283H431.742V222.12H417.249V99.0449H456.938ZM431.742 165.915H457.202C469.358 165.915 478.537 163.246 484.633 158.639C490.665 154.08 493.852 147.499 493.853 139.197C493.853 130.892 490.679 124.293 484.662 119.719C478.583 115.097 469.423 112.412 457.269 112.412H431.742V165.915Z" fill="#6D6D73" stroke="#6D6D73" stroke-width="3.50287"/>
<path d="M614.664 96.7334C624.148 96.7334 632.98 98.9192 641.127 103.369H641.126C649.238 107.602 655.075 113.119 658.577 119.563L659.371 121.025L657.952 121.894L649.08 127.322L647.542 128.264L646.645 126.698C641.254 117.28 628.792 110.3 614.333 110.3C606.026 110.3 598.599 112.571 593.298 116.325C588.013 120.068 584.9 125.222 584.9 131.125C584.9 136.182 586.79 140.143 590.807 143.444C594.918 146.823 601.305 149.542 610.323 151.805H610.322L626.728 155.774L626.738 155.776L626.748 155.779C637.995 158.633 646.641 162.775 652.494 168.35C658.4 173.974 661.371 180.974 661.371 189.257C661.371 199.763 656.151 208.618 647.682 214.789C639.241 220.941 627.571 224.443 614.466 224.443C603.865 224.443 594.183 222.062 585.448 217.49C576.743 212.934 570.3 207.09 566.325 199.977L565.491 198.482L566.965 197.613L576.168 192.185L576.579 191.941H578.132L578.639 192.813C584.692 203.235 597.823 210.877 614.862 210.877C623.347 210.877 631.468 208.599 637.414 204.789C643.365 200.976 646.944 195.781 646.944 189.919C646.944 184.578 645.005 180.453 640.936 177.062C636.772 173.592 630.309 170.841 621.194 168.578V168.577L604.784 164.608L604.776 164.605C593.627 161.852 585.06 157.794 579.262 152.292C573.592 146.913 570.659 140.236 570.481 132.355L570.473 131.589C570.405 110.958 589.917 96.7334 614.664 96.7334Z" fill="#6D6D73" stroke="#6D6D73" stroke-width="3.50287"/>
<path d="M904.801 99.0449V208.554H972.466V222.12H890.308V99.0449H904.801Z" fill="#6D6D73" stroke="#6D6D73" stroke-width="3.50287"/>
<path d="M1050.13 99.0449V222.12H1035.63V99.0449H1050.13Z" fill="#6D6D73" stroke="#6D6D73" stroke-width="3.50287"/>
<path d="M1118.01 160.562C1117.5 124.927 1144.42 96.0675 1179.81 96.7305C1214.83 96.0666 1242.16 124.946 1241.62 160.612C1242.07 196.061 1214.8 224.905 1179.81 224.44C1144.48 224.905 1117.47 196.098 1118.01 160.562ZM1179.82 110.429C1151.84 110.429 1132.51 132.225 1132.51 160.519C1132.51 188.815 1151.84 210.675 1179.82 210.675C1207.79 210.675 1227.13 188.88 1227.13 160.519C1227.13 132.161 1207.79 110.429 1179.82 110.429Z" fill="#6D6D73" stroke="#6D6D73" stroke-width="3.50287"/>
<path d="M1323.09 99.0449L1323.62 99.7529L1396 197.346V99.0449H1410.37V222.12H1397.21L1396.68 221.414L1324.16 123.896V222.12H1309.8V99.0449H1323.09Z" fill="#6D6D73" stroke="#6D6D73" stroke-width="3.50287"/>
<path d="M778.746 99.0449L779.194 100.125L828.785 219.698L829.79 222.12H814.342L813.896 221.036L800.256 187.932L800.255 187.929L796.35 178.397L771.818 118.902L747.351 178.396L747.35 178.396L743.444 187.929L743.443 187.932L729.805 221.036L729.357 222.12H714.241L715.245 219.698L764.836 100.125L765.284 99.0449H778.746Z" fill="#6D6D73" stroke="#6D6D73" stroke-width="3.50287"/>
<path d="M1488.61 200.195L1504.39 191.289C1507.56 196.774 1512.22 201.185 1518.39 204.521C1524.61 207.858 1531.82 209.526 1540.02 209.526C1548.56 209.526 1555.68 207.801 1561.39 204.352C1567.22 200.676 1570.13 196.039 1570.13 190.44C1570.13 185.351 1568.1 181.223 1564.02 178.056C1559.95 174.832 1553.39 172.118 1544.34 169.913L1527.89 165.756C1504.7 159.932 1493.11 148.48 1493.11 131.402C1493.11 120.714 1497.47 111.921 1506.17 105.022C1514.88 98.0659 1525.99 94.5881 1539.51 94.5881C1550.08 94.5881 1559.59 96.9066 1568.01 101.544C1576.61 106.124 1582.8 112.005 1586.59 119.187L1571.15 127.924C1568.44 123.004 1564.19 119.046 1558.43 116.049C1552.71 113.052 1546.3 111.553 1539.17 111.553C1531.37 111.553 1524.89 113.363 1519.75 116.982C1514.49 120.545 1511.86 125.069 1511.86 130.554C1511.86 135.417 1513.86 139.376 1517.88 142.429C1521.95 145.483 1528.48 148.113 1537.47 150.318L1553.93 154.475C1577.23 160.186 1588.88 171.892 1588.88 189.592C1588.88 200.393 1584.24 209.271 1574.97 216.227C1565.75 223.126 1553.99 226.576 1539.68 226.576C1528.09 226.576 1517.68 224.087 1508.46 219.111C1499.36 214.191 1492.74 207.886 1488.61 200.195Z" fill="#3F63ED"/>
<path d="M1738.24 96.9632V113.674H1669.28V152.015H1731.12V168.725H1669.28V207.49H1740.02V224.116H1650.53V96.9632H1738.24Z" fill="#3F63ED"/>
<path d="M1904.74 224.116H1883.28L1852.66 178.989C1847.34 179.215 1844.4 179.328 1843.84 179.328H1820V224.116H1801.25V96.9632H1843.84C1860.35 96.9632 1873.36 100.724 1882.86 108.245C1892.36 115.71 1897.11 125.691 1897.11 138.188C1897.11 146.84 1894.82 154.333 1890.24 160.667C1885.71 167 1879.15 171.779 1870.56 175.002L1904.74 224.116ZM1820 162.957H1844.01C1855.26 162.957 1863.83 160.808 1869.71 156.51C1875.59 152.213 1878.53 146.162 1878.53 138.358C1878.53 130.554 1875.59 124.503 1869.71 120.205C1863.83 115.851 1855.26 113.674 1844.01 113.674H1820V162.957Z" fill="#3F63ED"/>
<path d="M1964.27 96.9632L2002.79 199.856L2041.38 96.9632H2061.57L2012.2 224.116H1992.95L1943.58 96.9632H1964.27Z" fill="#3F63ED"/>
<path d="M2137.05 96.9632V224.116H2118.3V96.9632H2137.05Z" fill="#3F63ED"/>
<path d="M2198.62 160.582C2198.51 151.477 2200.09 142.825 2203.37 134.625C2206.65 126.426 2211.15 119.385 2216.86 113.504C2222.57 107.566 2229.44 102.901 2237.47 99.5079C2245.56 96.0584 2254.1 94.4185 2263.09 94.5881C2274.45 94.5881 2284.83 97.1046 2294.22 102.138C2303.61 107.114 2311.13 113.956 2316.78 122.665L2300.83 131.911C2296.59 125.577 2291.22 120.658 2284.72 117.152C2278.27 113.645 2271.06 111.892 2263.09 111.892C2254.38 111.723 2246.49 113.843 2239.42 118.254C2232.35 122.609 2226.87 128.546 2222.96 136.067C2219.12 143.532 2217.25 151.704 2217.37 160.582C2217.25 169.46 2219.12 177.66 2222.96 185.181C2226.87 192.646 2232.35 198.555 2239.42 202.91C2246.49 207.264 2254.38 209.356 2263.09 209.187C2271.06 209.187 2278.3 207.462 2284.8 204.012C2291.31 200.506 2296.65 195.586 2300.83 189.253L2316.78 198.414C2311.13 207.179 2303.61 214.078 2294.22 219.111C2284.83 224.087 2274.45 226.576 2263.09 226.576C2254.1 226.745 2245.56 225.105 2237.47 221.656C2229.44 218.263 2222.57 213.626 2216.86 207.745C2211.15 201.807 2206.65 194.738 2203.37 186.538C2200.09 178.339 2198.51 169.686 2198.62 160.582Z" fill="#3F63ED"/>
<path d="M2466.57 96.9632V113.674H2397.61V152.015H2459.44V168.725H2397.61V207.49H2468.35V224.116H2378.86V96.9632H2466.57Z" fill="#3F63ED"/>
<path d="M2522.96 200.195L2538.74 191.289C2541.91 196.774 2546.57 201.185 2552.74 204.521C2558.96 207.858 2566.17 209.526 2574.37 209.526C2582.91 209.526 2590.03 207.801 2595.74 204.352C2601.57 200.676 2604.48 196.039 2604.48 190.44C2604.48 185.351 2602.45 181.223 2598.37 178.056C2594.3 174.832 2587.74 172.118 2578.69 169.913L2562.24 165.756C2539.05 159.932 2527.46 148.48 2527.46 131.402C2527.46 120.714 2531.81 111.921 2540.52 105.022C2549.23 98.0659 2560.34 94.5881 2573.86 94.5881C2584.43 94.5881 2593.93 96.9066 2602.36 101.544C2610.96 106.124 2617.15 112.005 2620.94 119.187L2605.5 127.924C2602.79 123.004 2598.54 119.046 2592.78 116.049C2587.06 113.052 2580.65 111.553 2573.52 111.553C2565.72 111.553 2559.24 113.363 2554.1 116.982C2548.84 120.545 2546.21 125.069 2546.21 130.554C2546.21 135.417 2548.21 139.376 2552.23 142.429C2556.3 145.483 2562.83 148.113 2571.82 150.318L2588.28 154.475C2611.58 160.186 2623.23 171.892 2623.23 189.592C2623.23 200.393 2618.59 209.271 2609.32 216.227C2600.1 223.126 2588.34 226.576 2574.03 226.576C2562.44 226.576 2552.03 224.087 2542.81 219.111C2533.71 214.191 2527.09 207.886 2522.96 200.195Z" fill="#3F63ED"/>
<defs>
<linearGradient id="paint0_linear_577_661" x1="19.6364" y1="120.895" x2="113.455" y2="-24.4145" gradientUnits="userSpaceOnUse">
<stop offset="0.125488" stop-color="#0C33F3"/>
<stop offset="0.181918" stop-color="#66ACFF"/>
<stop offset="1" stop-color="#62AAFF"/>
</linearGradient>
<linearGradient id="paint1_linear_577_661" x1="219.467" y1="75.2361" x2="335.54" y2="278.363" gradientUnits="userSpaceOnUse">
<stop offset="0.0190807" stop-color="#64ABFF"/>
<stop offset="0.111049" stop-color="#63ABFF"/>
<stop offset="0.21" stop-color="#0C33F3"/>
<stop offset="0.624419" stop-color="#0C33F3"/>
<stop offset="1" stop-color="#0C33F3"/>
</linearGradient>
</defs>
</svg>
