<svg width="2121" height="322" viewBox="0 0 2121 322" fill="none" xmlns="http://www.w3.org/2000/svg">
<path d="M215.844 51.6557L147.602 90.8361C143.835 93.0013 143.835 96.4932 147.602 98.6396L188.765 122.081C192.481 124.197 192.481 127.663 188.765 129.835L175.012 137.857C171.277 140.035 165.208 140.092 161.46 137.976L92.0986 98.8023C88.2695 96.6371 88.2695 93.1139 92.0986 90.9299L161.46 51.4367C165.208 49.3028 165.208 45.8171 161.46 43.6457L147.602 35.6231C143.835 33.4454 137.716 33.4016 133.937 35.5355L35.4067 91.1865C32.4347 92.8636 32.441 97.1502 35.4192 98.8211L49.3341 106.618C53.1882 108.777 56.3103 114.147 56.3103 118.615V135.098C56.3103 139.566 53.1882 141.443 49.3341 139.284L6.97622 115.555C3.12209 113.396 0 108.026 0 103.558V87.4193C0 82.2128 2.81551 77.4067 7.35788 74.8598L133.937 3.96469C137.716 1.84954 143.835 1.91838 147.602 4.11488L215.844 43.9335C219.529 46.0862 219.529 49.5406 215.844 51.6557Z" fill="url(#paint0_linear_577_644)"/>
<path d="M268.764 74.7977C273.188 77.3747 275.904 82.1098 275.904 87.2263V234.131C275.904 238.597 272.906 243.964 269.208 246.122L201.503 285.603C197.805 287.761 194.808 285.884 194.808 281.418V199.641C194.808 195.175 191.811 193.298 188.113 195.456L147.44 219.175C143.742 221.333 140.744 219.457 140.744 214.991V198.515C140.744 194.049 143.742 188.682 147.44 186.524L215.144 147.043C218.843 144.885 221.84 146.761 221.84 151.227V233.005C221.84 237.471 224.837 239.347 228.535 237.189L242.176 229.233C245.874 227.075 248.872 221.708 248.872 217.242V102.351C248.872 98.9732 245.205 96.8653 242.283 98.5666L229.155 106.223C225.475 108.368 219.506 108.393 215.82 106.279L202.179 98.454C198.475 96.3273 198.475 92.8558 202.179 90.7166L242.683 67.2855C246.344 65.165 252.263 65.1775 255.911 67.3042L268.764 74.7977Z" fill="url(#paint1_linear_577_644)"/>
<path d="M167.854 248.118V297.283C167.854 301.753 164.857 307.124 161.158 309.284L147.927 317.002C143.521 319.575 138.089 319.619 133.639 317.127L6.97829 246.177C3.12302 244.017 0 238.646 0 234.177V152.334C0 147.865 3.12302 145.987 6.97829 148.147L77.5122 187.659C81.3675 189.819 84.4905 187.941 84.4905 183.471V134.306C84.4905 129.836 87.6135 127.958 91.4688 130.118L105.676 138.081C109.531 140.24 112.654 145.611 112.654 150.081V231.923C112.654 236.393 109.531 238.271 105.676 236.111L35.1418 196.598C31.2865 194.439 28.1635 196.317 28.1635 200.786V217.275C28.1635 221.745 31.2865 227.116 35.1418 229.275L134.296 284.813C137.219 286.447 140.818 284.338 140.818 280.989V263.88C140.818 259.411 143.815 254.04 147.514 251.88L161.158 243.917C164.857 241.758 167.854 243.636 167.854 248.105V248.118Z" fill="#3F63ED"/>
<path d="M456.938 99.0439C473.03 99.0439 485.855 103.015 494.695 110.087C503.576 117.191 508.279 127.307 508.279 139.196C508.279 151.083 503.594 161.199 494.721 168.305C485.888 175.377 473.062 179.349 456.938 179.349H455.187V179.282H431.742V222.119H417.249V99.0439H456.938ZM431.742 165.914H457.202C469.358 165.914 478.537 163.245 484.633 158.638C490.665 154.079 493.852 147.498 493.853 139.196C493.853 130.891 490.679 124.292 484.662 119.718C478.583 115.096 469.423 112.411 457.269 112.411H431.742V165.914Z" fill="#6D6D73" stroke="#6D6D73" stroke-width="3.50287"/>
<path d="M614.664 96.7314C624.148 96.7314 632.98 98.9173 641.127 103.367H641.126C649.238 107.6 655.075 113.117 658.577 119.562L659.371 121.023L657.952 121.892L649.08 127.32L647.542 128.262L646.645 126.696C641.254 117.278 628.792 110.298 614.333 110.298C606.026 110.298 598.599 112.569 593.298 116.323C588.013 120.066 584.9 125.22 584.9 131.123C584.9 136.18 586.79 140.142 590.807 143.442C594.918 146.821 601.305 149.54 610.323 151.803H610.322L626.728 155.772L626.738 155.774L626.748 155.777C637.995 158.631 646.641 162.773 652.494 168.348C658.4 173.973 661.371 180.972 661.371 189.255C661.371 199.761 656.151 208.616 647.682 214.787C639.241 220.939 627.571 224.441 614.466 224.441C603.865 224.441 594.183 222.06 585.448 217.488C576.743 212.932 570.3 207.088 566.325 199.975L565.491 198.48L566.965 197.611L576.168 192.183L576.579 191.939H578.132L578.639 192.812C584.692 203.233 597.823 210.875 614.862 210.875C623.347 210.875 631.468 208.597 637.414 204.787C643.365 200.974 646.944 195.779 646.944 189.917C646.944 184.576 645.005 180.451 640.936 177.061C636.772 173.59 630.309 170.839 621.194 168.576V168.575L604.784 164.606L604.776 164.604C593.627 161.85 585.06 157.792 579.262 152.29C573.592 146.911 570.659 140.234 570.481 132.354L570.473 131.587C570.405 110.956 589.917 96.7315 614.664 96.7314Z" fill="#6D6D73" stroke="#6D6D73" stroke-width="3.50287"/>
<path d="M904.801 99.0439V208.553H972.466V222.119H890.308V99.0439H904.801Z" fill="#6D6D73" stroke="#6D6D73" stroke-width="3.50287"/>
<path d="M1050.13 99.0439V222.119H1035.63V99.0439H1050.13Z" fill="#6D6D73" stroke="#6D6D73" stroke-width="3.50287"/>
<path d="M1118.01 160.561C1117.5 124.926 1144.42 96.0665 1179.81 96.7295C1214.83 96.0657 1242.16 124.945 1241.62 160.611C1242.07 196.06 1214.8 224.904 1179.81 224.439C1144.48 224.904 1117.47 196.097 1118.01 160.561ZM1179.82 110.428C1151.84 110.428 1132.51 132.224 1132.51 160.518C1132.51 188.814 1151.84 210.674 1179.82 210.674C1207.79 210.674 1227.13 188.879 1227.13 160.518C1227.13 132.16 1207.79 110.428 1179.82 110.428Z" fill="#6D6D73" stroke="#6D6D73" stroke-width="3.50287"/>
<path d="M1323.09 99.0439L1323.62 99.752L1396 197.345V99.0439H1410.37V222.119H1397.21L1396.68 221.413L1324.16 123.895V222.119H1309.8V99.0439H1323.09Z" fill="#6D6D73" stroke="#6D6D73" stroke-width="3.50287"/>
<path d="M778.746 99.0439L779.194 100.124L828.785 219.697L829.79 222.119H814.342L813.896 221.035L800.256 187.931L800.255 187.928L796.35 178.396L771.818 118.901L747.351 178.396L747.35 178.395L743.444 187.928L743.443 187.931L729.805 221.035L729.357 222.119H714.241L715.245 219.697L764.836 100.124L765.284 99.0439H778.746Z" fill="#6D6D73" stroke="#6D6D73" stroke-width="3.50287"/>
<path d="M1488.61 100.597H1508.62L1544.32 160.782L1580.25 100.597H1599.78L1553.04 177.509V220.567H1535.35V177.509L1488.61 100.597Z" fill="#3F63ED"/>
<path d="M1671 100.597V220.567H1653.31V100.597H1671Z" fill="#3F63ED"/>
<path d="M1817.29 100.597V116.363H1752.22V152.538H1810.56V168.305H1752.22V204.88H1818.97V220.567H1734.53V100.597H1817.29Z" fill="#3F63ED"/>
<path d="M1894.43 100.597V204.88H1957.89V220.567H1876.74V100.597H1894.43Z" fill="#3F63ED"/>
<path d="M2112.51 129.409C2117.63 138.426 2120.19 148.83 2120.19 160.622C2120.19 172.413 2117.63 182.844 2112.51 191.915C2107.44 200.932 2100.1 207.975 2090.5 213.044C2080.95 218.059 2069.79 220.567 2057.04 220.567H2014.47V100.597H2057.04C2069.79 100.597 2080.95 103.131 2090.5 108.2C2100.1 113.269 2107.44 120.338 2112.51 129.409ZM2090.42 193.115C2098.47 185.219 2102.5 174.387 2102.5 160.622C2102.5 146.856 2098.47 136.051 2090.42 128.208C2082.41 120.312 2071.29 116.363 2057.04 116.363H2032.15V204.88H2057.04C2071.29 204.88 2082.41 200.959 2090.42 193.115Z" fill="#3F63ED"/>
<defs>
<linearGradient id="paint0_linear_577_644" x1="19.6364" y1="120.895" x2="113.455" y2="-24.4145" gradientUnits="userSpaceOnUse">
<stop offset="0.125488" stop-color="#0C33F3"/>
<stop offset="0.181918" stop-color="#66ACFF"/>
<stop offset="1" stop-color="#62AAFF"/>
</linearGradient>
<linearGradient id="paint1_linear_577_644" x1="219.467" y1="75.2361" x2="335.54" y2="278.363" gradientUnits="userSpaceOnUse">
<stop offset="0.0190807" stop-color="#64ABFF"/>
<stop offset="0.111049" stop-color="#63ABFF"/>
<stop offset="0.21" stop-color="#0C33F3"/>
<stop offset="0.624419" stop-color="#0C33F3"/>
<stop offset="1" stop-color="#0C33F3"/>
</linearGradient>
</defs>
</svg>
