<svg width="1473" height="322" viewBox="0 0 1473 322" fill="none" xmlns="http://www.w3.org/2000/svg">
<path d="M216.196 51.74L147.843 90.9844C144.07 93.1531 144.07 96.6507 147.843 98.8006L189.073 122.281C192.795 124.399 192.795 127.872 189.073 130.047L175.298 138.083C171.557 140.264 165.478 140.32 161.724 138.202L92.249 98.9636C88.4137 96.7949 88.4137 93.2659 92.249 91.0784L161.724 51.5206C165.478 49.3832 165.478 45.8919 161.724 43.7169L147.843 35.6812C144.07 33.5 137.941 33.4561 134.156 35.5935L35.4645 91.3354C32.4877 93.0152 32.494 97.3088 35.477 98.9824L49.4146 106.792C53.2751 108.955 56.4023 114.333 56.4023 118.808V135.318C56.4023 139.794 53.2751 141.674 49.4146 139.512L6.98761 115.743C3.12719 113.581 0 108.203 0 103.727V87.562C0 82.347 2.82011 77.5331 7.36989 74.982L134.156 3.97112C137.941 1.85252 144.07 1.92146 147.843 4.12155L216.196 44.0052C219.887 46.1615 219.887 49.6214 216.196 51.74Z" fill="url(#paint0_linear_577_630)"/>
<path d="M269.203 74.92C273.634 77.5012 276.354 82.244 276.354 87.3689V234.513C276.354 238.987 273.352 244.362 269.648 246.524L201.832 286.07C198.128 288.231 195.126 286.352 195.126 281.878V199.967C195.126 195.494 192.124 193.614 188.42 195.776L147.68 219.533C143.976 221.695 140.974 219.815 140.974 215.342V198.839C140.974 194.366 143.976 188.99 147.68 186.829L215.496 147.283C219.2 145.121 222.202 147.001 222.202 151.474V233.386C222.202 237.859 225.204 239.738 228.908 237.577L242.572 229.608C246.276 227.446 249.278 222.071 249.278 217.597V102.518C249.278 99.1349 245.605 97.0236 242.678 98.7277L229.529 106.396C225.844 108.545 219.864 108.57 216.173 106.453L202.509 98.6149C198.799 96.4848 198.799 93.0076 202.509 90.8649L243.079 67.3955C246.746 65.2716 252.675 65.2841 256.329 67.4143L269.203 74.92Z" fill="url(#paint1_linear_577_630)"/>
<path d="M168.129 248.523V297.769C168.129 302.246 165.126 307.625 161.421 309.789L148.169 317.52C143.756 320.097 138.314 320.141 133.857 317.645L6.98969 246.579C3.12812 244.416 0 239.036 0 234.559V152.583C0 148.106 3.12812 146.225 6.98969 148.388L77.6388 187.966C81.5004 190.129 84.6285 188.248 84.6285 183.771V134.525C84.6285 130.048 87.7566 128.167 91.6182 130.33L105.848 138.306C109.71 140.469 112.838 145.849 112.838 150.326V232.302C112.838 236.779 109.71 238.66 105.848 236.497L35.1992 196.919C31.3376 194.756 28.2095 196.637 28.2095 201.114V217.63C28.2095 222.107 31.3376 227.486 35.1992 229.65L134.515 285.279C137.443 286.915 141.047 284.802 141.047 281.447V264.311C141.047 259.834 144.05 254.454 147.755 252.291L161.421 244.316C165.126 242.152 168.129 244.033 168.129 248.51V248.523Z" fill="#3F63ED"/>
<path d="M459.662 95.6191C476.718 95.6192 490.312 99.8287 499.681 107.324C509.094 114.854 514.08 125.576 514.08 138.178C514.08 150.777 509.112 161.499 499.708 169.03C490.346 176.527 476.752 180.735 459.662 180.735H457.805V180.666H432.957V226.069H417.594V95.6191H459.662ZM432.957 166.497H459.942C472.826 166.497 482.555 163.667 489.016 158.784C495.409 153.952 498.788 146.977 498.788 138.178C498.788 129.374 495.423 122.38 489.046 117.532C482.603 112.634 472.894 109.788 460.012 109.788H432.957V166.497Z" fill="#6D6D73" stroke="#6D6D73" stroke-width="3.71274"/>
<path d="M626.838 93.168C636.89 93.168 646.251 95.4856 654.886 100.202H654.885C663.483 104.688 669.67 110.536 673.382 117.366L674.224 118.916L672.72 119.836L663.315 125.591L661.686 126.588L660.735 124.929C655.021 114.946 641.813 107.548 626.487 107.548C617.683 107.548 609.81 109.955 604.191 113.935C598.59 117.901 595.291 123.364 595.291 129.621C595.291 134.981 597.294 139.179 601.552 142.678C605.908 146.258 612.675 149.14 622.229 151.538L639.625 155.747L639.636 155.749L639.646 155.752C651.566 158.777 660.729 163.167 666.934 169.075C673.194 175.037 676.344 182.456 676.344 191.235C676.344 202.371 670.81 211.756 661.835 218.297C652.888 224.817 640.518 228.53 626.627 228.53C615.391 228.53 605.13 226.007 595.872 221.161C586.645 216.332 579.817 210.137 575.604 202.597L574.719 201.014L576.28 200.093L586.035 194.338L586.472 194.081H588.117L588.653 195.005C595.07 206.052 608.988 214.151 627.049 214.151C636.042 214.151 644.648 211.736 650.95 207.698C657.258 203.657 661.052 198.151 661.052 191.938C661.052 186.277 658.997 181.905 654.685 178.311C650.272 174.633 643.426 171.717 633.77 169.319L616.366 165.109L616.357 165.107C604.54 162.189 595.461 157.887 589.314 152.056C583.305 146.354 580.196 139.278 580.008 130.925L579.999 130.112C579.928 108.245 600.608 93.168 626.838 93.168Z" fill="#6D6D73" stroke="#6D6D73" stroke-width="3.71274"/>
<path d="M934.358 95.6191V211.689H1006.08V226.069H918.995V95.6191H934.358Z" fill="#6D6D73" stroke="#6D6D73" stroke-width="3.71274"/>
<path d="M1088.39 95.6191V226.069H1073.03V95.6191H1088.39Z" fill="#6D6D73" stroke="#6D6D73" stroke-width="3.71274"/>
<path d="M1225.85 93.166C1262.96 92.4626 1291.93 123.072 1291.36 160.875C1291.83 198.439 1262.95 229.006 1225.87 228.527L1225.87 228.528C1188.42 229.034 1159.78 198.508 1160.34 160.845C1159.78 123.064 1188.32 92.463 1225.85 93.166ZM1225.85 107.686C1196.2 107.686 1175.71 130.788 1175.71 160.776C1175.71 190.768 1196.2 213.938 1225.85 213.938C1255.5 213.938 1275.99 190.837 1275.99 160.776C1275.99 130.72 1255.5 107.686 1225.85 107.686Z" fill="#6D6D73" stroke="#6D6D73" stroke-width="3.71274"/>
<path d="M1377.71 95.6191L1378.27 96.3701L1454.99 199.811V95.6191H1470.21V226.069H1456.27L1455.71 225.32L1378.85 121.959V226.069H1363.62V95.6191H1377.71Z" fill="#6D6D73" stroke="#6D6D73" stroke-width="3.71274"/>
<path d="M800.751 95.6191L801.226 96.7646L853.789 223.502L854.853 226.069H838.48L838.006 224.92L823.55 189.832L823.548 189.829L819.408 179.724V179.723L793.408 116.667L767.474 179.723L763.334 189.829L763.333 189.832L748.877 224.92L748.404 226.069H732.381L733.446 223.502L786.007 96.7646L786.483 95.6191H800.751Z" fill="#6D6D73" stroke="#6D6D73" stroke-width="3.71274"/>
<defs>
<linearGradient id="paint0_linear_577_630" x1="19.6684" y1="121.092" x2="113.64" y2="-24.4544" gradientUnits="userSpaceOnUse">
<stop offset="0.125488" stop-color="#0C33F3"/>
<stop offset="0.181918" stop-color="#66ACFF"/>
<stop offset="1" stop-color="#62AAFF"/>
</linearGradient>
<linearGradient id="paint1_linear_577_630" x1="219.826" y1="75.3591" x2="336.088" y2="278.818" gradientUnits="userSpaceOnUse">
<stop offset="0.0190807" stop-color="#64ABFF"/>
<stop offset="0.111049" stop-color="#63ABFF"/>
<stop offset="0.21" stop-color="#0C33F3"/>
<stop offset="0.624419" stop-color="#0C33F3"/>
<stop offset="1" stop-color="#0C33F3"/>
</linearGradient>
</defs>
</svg>
